<svg width="17" height="11" viewBox="0 0 17 11" fill="none" xmlns="http://www.w3.org/2000/svg">
<g clip-path="url(#clip0_30_8511)">
<path d="M10.8727 0.292356C10.7374 0.430007 10.6615 0.615318 10.6615 0.808356C10.6615 1.00139 10.7374 1.1867 10.8727 1.32436L14.2727 4.74836H1.39271C1.29015 4.73762 1.18648 4.74855 1.08842 4.78045C0.990364 4.81234 0.900101 4.86449 0.823484 4.9335C0.746868 5.00252 0.685609 5.08686 0.643678 5.18107C0.601746 5.27527 0.580078 5.37724 0.580078 5.48036C0.580078 5.58347 0.601746 5.68544 0.643678 5.77964C0.685609 5.87385 0.746868 5.95819 0.823484 6.02721C0.900101 6.09622 0.990364 6.14837 1.08842 6.18026C1.18648 6.21216 1.29015 6.22309 1.39271 6.21236H14.2727L10.8647 9.68436C10.7312 9.82298 10.6567 10.0079 10.6567 10.2004C10.6567 10.3928 10.7312 10.5777 10.8647 10.7164C10.9308 10.7826 11.0094 10.8352 11.0959 10.8711C11.1824 10.907 11.2751 10.9254 11.3687 10.9254C11.4623 10.9254 11.555 10.907 11.6415 10.8711C11.728 10.8352 11.8066 10.7826 11.8727 10.7164L16.4647 6.00436C16.5271 5.93538 16.5784 5.85711 16.6167 5.77236C16.6552 5.68411 16.6743 5.58862 16.6727 5.49236C16.6735 5.39752 16.6555 5.30347 16.6198 5.2156C16.5841 5.12774 16.5314 5.04779 16.4647 4.98036L11.8727 0.308356C11.7458 0.178495 11.5741 0.102027 11.3926 0.0945919C11.2112 0.0871565 11.0338 0.149316 10.8967 0.268356L10.8727 0.292356Z" fill="white"/>
</g>
<defs>
<clipPath id="clip0_30_8511">
<rect width="16" height="10.8" fill="white" transform="translate(0.671875 0.0844727)"/>
</clipPath>
</defs>
</svg>
